<svg xmlns="http://www.w3.org/2000/svg" width="1662px" height="1438px" viewBox="0 0 1662 1438" xmlns:xlink="http://www.w3.org/1999/xlink" style="display: block; width: 1662px; height: 1438px; overflow: auto;"><rect width="1662px" height="1438px" fill="#0F0D13"/><clipPath id="ygc225_1"><rect x="25" y="25" width="1611.49" height="1387.38"/></clipPath><g clip-path="url(#ygc225_1)"><g transform="translate(1349.625 1338.75)" image-rendering="auto" shape-rendering="auto" style="pointer-events: visiblepainted;"><g style="box-sizing: initial;"><g><path fill="none" stroke="#ffffff" d="M -593.25,-1248.75 L -593.25,-1205.2540006242195" stroke-width="2" stroke-linecap="butt" stroke-linejoin="miter" stroke-miterlimit="10"/><use transform="matrix(0 -1 1 0 -593.25 -1205.1740006242196)" xlink:href="#ygc225_0"/></g><g><path fill="none" stroke="#ffffff" d="M -674.75,-1159.0239845938374 L -868.75,-1126.3510154061623" stroke-width="2" stroke-linecap="butt" stroke-linejoin="miter" stroke-miterlimit="10"/></g><g><path fill="none" stroke="#ffffff" d="M -511.75,-1158.9876819222 L -318.6917057287437,-1126.3873180778003" stroke-width="0" stroke-linecap="butt" stroke-linejoin="miter" stroke-miterlimit="10"/></g><g><path fill="none" stroke="#ffffff" d="M -511.75,-1158.9876819222 L -318.6917057287437,-1126.3873180778003" stroke-width="3" stroke-linecap="butt" stroke-linejoin="miter" stroke-miterlimit="10"/></g><g><path fill="none" stroke="#ffffff" d="M -950.25,-1082.625 L -950.25,-1048.875" stroke-width="2" stroke-linecap="butt" stroke-linejoin="miter" stroke-miterlimit="10"/></g><g><path fill="none" stroke="#ffffff" d="M -950.25,-988.875 L -950.25,-938.875" stroke-width="2" stroke-linecap="butt" stroke-linejoin="miter" stroke-miterlimit="10"/></g><g><path fill="none" stroke="#ffffff" d="M -950.25,-878.875 L -950.25,-828.875" stroke-width="2" stroke-linecap="butt" stroke-linejoin="miter" stroke-miterlimit="10"/></g><g><path fill="none" stroke="#ffffff" d="M -1004.4382470119522,-768.875 L -1094.7519920318725,-718.875" stroke-width="2" stroke-linecap="butt" stroke-linejoin="miter" stroke-miterlimit="10"/></g><g><path fill="none" stroke="#ffffff" d="M -1096.5,-658.875 L -1096.5,-608.875" stroke-width="2" stroke-linecap="butt" stroke-linejoin="miter" stroke-miterlimit="10"/></g><g><path fill="none" stroke="#ffffff" d="M -1096.5,-548.875 L -1096.5,-498.875" stroke-width="2" stroke-linecap="butt" stroke-linejoin="miter" stroke-miterlimit="10"/></g><g><path fill="none" stroke="#ffffff" d="M -1096.5,-438.875 L -1096.5,-388.875" stroke-width="2" stroke-linecap="butt" stroke-linejoin="miter" stroke-miterlimit="10"/></g><g><path fill="none" stroke="#ffffff" d="M -1170.6723322436485,-329.2360544930784 L -1235.7031973637336,-303.25" stroke-width="2" stroke-linecap="butt" stroke-linejoin="miter" stroke-miterlimit="10"/></g><g><path fill="none" stroke="#ffffff" d="M -1016.3523190402499,-333.85002330878547 L -918.3493943712148,-303.25" stroke-width="2" stroke-linecap="butt" stroke-linejoin="miter" stroke-miterlimit="10"/></g><g><path fill="none" stroke="#ffffff" d="M -915.25,-243.25 L -915.25,-209.625" stroke-width="2" stroke-linecap="butt" stroke-linejoin="miter" stroke-miterlimit="10"/></g><g><path fill="none" stroke="#ffffff" d="M -1238.125,-243.25 L -1238.125,-201.125" stroke-width="2" stroke-linecap="butt" stroke-linejoin="miter" stroke-miterlimit="10"/></g><g><path fill="none" stroke="#ffffff" d="M -1238.125,-141.125 L -1238.125,-92" stroke-width="2" stroke-linecap="butt" stroke-linejoin="miter" stroke-miterlimit="10"/></g><g><path fill="none" stroke="#ffffff" d="M -1238.125,-32 L -1238.125,8.625" stroke-width="2" stroke-linecap="butt" stroke-linejoin="miter" stroke-miterlimit="10"/></g><g><path fill="none" stroke="#ffffff" d="M -915.25,-149.625 L -915.25,-100.5" stroke-width="2" stroke-linecap="butt" stroke-linejoin="miter" stroke-miterlimit="10"/></g><g><path fill="none" stroke="#ffffff" d="M -876.2951593414892,-40.5 L -812.5066077631777,8.625" stroke-width="2" stroke-linecap="butt" stroke-linejoin="miter" stroke-miterlimit="10"/></g><g><path fill="none" stroke="#ffffff" d="M -954.2048406585108,-40.5 L -1017.9933922368223,8.625" stroke-width="2" stroke-linecap="butt" stroke-linejoin="miter" stroke-miterlimit="10"/></g><g><path fill="none" stroke="#ffffff" d="M -237.19170572874373,-1082.6250000000002 L -237.19170572874373,-1048.875" stroke-width="3" stroke-linecap="butt" stroke-linejoin="miter" stroke-miterlimit="10"/></g><g><path fill="none" stroke="#ffffff" d="M -317.9392244000014,-995.0624094131509 L -508.468426761698,-938.875" stroke-width="3" stroke-linecap="butt" stroke-linejoin="miter" stroke-miterlimit="10"/></g><g><path fill="none" stroke="#ffffff" d="M -156.44418705748612,-995.0624094131509 L 34.08501530421069,-938.875" stroke-width="3" stroke-linecap="butt" stroke-linejoin="miter" stroke-miterlimit="10"/></g><g><path fill="none" stroke="#ffffff" d="M 37.36658854251266,-878.875 L 37.36658854251266,-828.875" stroke-width="3" stroke-linecap="butt" stroke-linejoin="miter" stroke-miterlimit="10"/></g><g><path fill="none" stroke="#ffffff" d="M -511.75,-878.875 L -511.75,-828.875" stroke-width="3" stroke-linecap="butt" stroke-linejoin="miter" stroke-miterlimit="10"/></g><g><path fill="none" stroke="#ffffff" d="M -511.75,-768.875 L -511.75,-718.875" stroke-width="3" stroke-linecap="butt" stroke-linejoin="miter" stroke-miterlimit="10"/></g><g><path fill="none" stroke="#ffffff" d="M 37.36658854251266,-768.875 L 37.36658854251266,-718.875" stroke-width="3" stroke-linecap="butt" stroke-linejoin="miter" stroke-miterlimit="10"/></g><g><path fill="none" stroke="#ffffff" d="M -44.13341145748734,-688.875 L -155.69170572874373,-688.875" stroke-width="3" stroke-linecap="butt" stroke-linejoin="miter" stroke-miterlimit="10"/></g><g><path fill="none" stroke="#ffffff" d="M -318.6917057287437,-688.875 L -430.25,-688.875" stroke-width="3" stroke-linecap="butt" stroke-linejoin="miter" stroke-miterlimit="10"/></g><g><path fill="none" stroke="#ffffff" d="M -935.6844855305467,-768.875 L -804.5948553054662,-498.875" stroke-width="3" stroke-linecap="butt" stroke-linejoin="miter" stroke-miterlimit="10"/></g><g><path fill="none" stroke="#ffffff" d="M -511.75,-658.875 L -511.75,-608.875" stroke-width="3" stroke-linecap="butt" stroke-linejoin="miter" stroke-miterlimit="10"/></g><g><path fill="none" stroke="#ffffff" d="M -511.75,-548.875 L -511.75,-498.875" stroke-width="3" stroke-linecap="butt" stroke-linejoin="miter" stroke-miterlimit="10"/></g><g><path fill="none" stroke="#ffffff" d="M -722.625,-468.875 L -593.25,-468.875" stroke-width="3" stroke-linecap="butt" stroke-linejoin="miter" stroke-miterlimit="10"/></g><g><path fill="none" stroke="#ffffff" d="M -511.75,-438.875 L -511.75,-399.875" stroke-width="3" stroke-linecap="butt" stroke-linejoin="miter" stroke-miterlimit="10"/></g><g><path fill="none" stroke="#ffffff" d="M 37.36658854251266,-658.875 L 37.36658854251266,-608.875" stroke-width="3" stroke-linecap="butt" stroke-linejoin="miter" stroke-miterlimit="10"/></g><g><path fill="none" stroke="#ffffff" d="M 37.36658854251266,-548.875 L 37.36658854251266,-488.125" stroke-width="3" stroke-linecap="butt" stroke-linejoin="miter" stroke-miterlimit="10"/></g><g><path fill="none" stroke="#ffffff" d="M 37.36658854251266,-428.125 L 37.36658854251266,-379.5625" stroke-width="3" stroke-linecap="butt" stroke-linejoin="miter" stroke-miterlimit="10"/></g><g><path fill="none" stroke="#ffffff" d="M -43.356053237118985,-325.69018704917977 L -119.23605633403854,-303.25" stroke-width="3" stroke-linecap="butt" stroke-linejoin="miter" stroke-miterlimit="10"/></g><g><path fill="none" stroke="#ffffff" d="M 118.25122898941822,-326.10087196813305 L 197.03027026184242,-303.25" stroke-width="3" stroke-linecap="butt" stroke-linejoin="miter" stroke-miterlimit="10"/></g><g><path fill="none" stroke="#ffffff" d="M -122.50841145748734,-243.25 L -122.50841145748734,-209.625" stroke-width="3" stroke-linecap="butt" stroke-linejoin="miter" stroke-miterlimit="10"/></g><g><path fill="none" stroke="#ffffff" d="M 200.36658854251266,-243.25 L 200.36658854251266,-209.625" stroke-width="3" stroke-linecap="butt" stroke-linejoin="miter" stroke-miterlimit="10"/></g><path fill="rgb(255,255,255)" stroke="#663800" d="M 0,10 C 0,4.47715250169206 4.47715250169206,0 10,0 L 153,0 C 158.52284749830795,0 163,4.47715250169206 163,10 L 163,50 C 163,55.52284749830794 158.52284749830795,60 153,60 L 10,60 C 4.47715250169206,60 0,55.52284749830794 0,50 Z" fill-opacity="1" stroke-width="1" stroke-linecap="butt" stroke-linejoin="miter" stroke-miterlimit="10" transform="translate(-674.75 -1308.75)"/><path fill="rgb(255,255,255)" stroke="#663800" d="M 0,10 C 0,4.47715250169206 4.47715250169206,0 10,0 L 153,0 C 158.52284749830795,0 163,4.47715250169206 163,10 L 163,50 C 163,55.52284749830794 158.52284749830795,60 153,60 L 10,60 C 4.47715250169206,60 0,55.52284749830794 0,50 Z" fill-opacity="1" stroke-width="1" stroke-linecap="butt" stroke-linejoin="miter" stroke-miterlimit="10" transform="translate(-674.75 -1202.75)"/><path fill="rgb(255,255,255)" stroke="#663800" d="M 0,10 C 0,4.47715250169206 4.47715250169206,0 10,0 L 153,0 C 158.52284749830795,0 163,4.47715250169206 163,10 L 163,50 C 163,55.52284749830794 158.52284749830795,60 153,60 L 10,60 C 4.47715250169206,60 0,55.52284749830794 0,50 Z" fill-opacity="1" stroke-width="1" stroke-linecap="butt" stroke-linejoin="miter" stroke-miterlimit="10" transform="translate(-1031.75 -1142.625)"/><path fill="rgb(255,255,255)" stroke="#663800" d="M 0,10 C 0,4.47715250169206 4.47715250169206,0 10,0 L 153,0 C 158.52284749830795,0 163,4.47715250169206 163,10 L 163,50 C 163,55.52284749830794 158.52284749830795,60 153,60 L 10,60 C 4.47715250169206,60 0,55.52284749830794 0,50 Z" fill-opacity="1" stroke-width="1" stroke-linecap="butt" stroke-linejoin="miter" stroke-miterlimit="10" transform="translate(-318.6917057287437 -1142.6250000000002)"/><path fill="rgb(255,255,255)" stroke="#663800" d="M 0,10 C 0,4.47715250169206 4.47715250169206,0 10,0 L 153,0 C 158.52284749830795,0 163,4.47715250169206 163,10 L 163,50 C 163,55.52284749830794 158.52284749830795,60 153,60 L 10,60 C 4.47715250169206,60 0,55.52284749830794 0,50 Z" fill-opacity="1" stroke-width="1" stroke-linecap="butt" stroke-linejoin="miter" stroke-miterlimit="10" transform="translate(-1031.75 -1048.875)"/><path fill="rgb(255,255,255)" stroke="#663800" d="M 0,10 C 0,4.47715250169206 4.47715250169206,0 10,0 L 153,0 C 158.52284749830795,0 163,4.47715250169206 163,10 L 163,50 C 163,55.52284749830794 158.52284749830795,60 153,60 L 10,60 C 4.47715250169206,60 0,55.52284749830794 0,50 Z" fill-opacity="1" stroke-width="1" stroke-linecap="butt" stroke-linejoin="miter" stroke-miterlimit="10" transform="translate(-1031.75 -938.875)"/><path fill="rgb(255,255,255)" stroke="#663800" d="M 0,10 C 0,4.47715250169206 4.47715250169206,0 10,0 L 153,0 C 158.52284749830795,0 163,4.47715250169206 163,10 L 163,50 C 163,55.52284749830794 158.52284749830795,60 153,60 L 10,60 C 4.47715250169206,60 0,55.52284749830794 0,50 Z" fill-opacity="1" stroke-width="1" stroke-linecap="butt" stroke-linejoin="miter" stroke-miterlimit="10" transform="translate(-1031.75 -828.875)"/><path fill="rgb(255,255,255)" stroke="#663800" d="M 0,10 C 0,4.47715250169206 4.47715250169206,0 10,0 L 153,0 C 158.52284749830795,0 163,4.47715250169206 163,10 L 163,50 C 163,55.52284749830794 158.52284749830795,60 153,60 L 10,60 C 4.47715250169206,60 0,55.52284749830794 0,50 Z" fill-opacity="1" stroke-width="1" stroke-linecap="butt" stroke-linejoin="miter" stroke-miterlimit="10" transform="translate(-1178 -718.875)"/><path fill="rgb(255,255,255)" stroke="#663800" d="M 0,10 C 0,4.47715250169206 4.47715250169206,0 10,0 L 153,0 C 158.52284749830795,0 163,4.47715250169206 163,10 L 163,50 C 163,55.52284749830794 158.52284749830795,60 153,60 L 10,60 C 4.47715250169206,60 0,55.52284749830794 0,50 Z" fill-opacity="1" stroke-width="1" stroke-linecap="butt" stroke-linejoin="miter" stroke-miterlimit="10" transform="translate(-1178 -608.875)"/><path fill="rgb(255,255,255)" stroke="#663800" d="M 0,10 C 0,4.47715250169206 4.47715250169206,0 10,0 L 153,0 C 158.52284749830795,0 163,4.47715250169206 163,10 L 163,50 C 163,55.52284749830794 158.52284749830795,60 153,60 L 10,60 C 4.47715250169206,60 0,55.52284749830794 0,50 Z" fill-opacity="1" stroke-width="1" stroke-linecap="butt" stroke-linejoin="miter" stroke-miterlimit="10" transform="translate(-1178 -498.875)"/><path fill="rgb(255,255,255)" stroke="#663800" d="M 0,10 C 0,4.47715250169206 4.47715250169206,0 10,0 L 153,0 C 158.52284749830795,0 163,4.47715250169206 163,10 L 163,50 C 163,55.52284749830794 158.52284749830795,60 153,60 L 10,60 C 4.47715250169206,60 0,55.52284749830794 0,50 Z" fill-opacity="1" stroke-width="1" stroke-linecap="butt" stroke-linejoin="miter" stroke-miterlimit="10" transform="translate(-1178 -388.875)"/><path fill="rgb(255,255,255)" stroke="#663800" d="M 0,10 C 0,4.47715250169206 4.47715250169206,0 10,0 L 153,0 C 158.52284749830795,0 163,4.47715250169206 163,10 L 163,50 C 163,55.52284749830794 158.52284749830795,60 153,60 L 10,60 C 4.47715250169206,60 0,55.52284749830794 0,50 Z" fill-opacity="1" stroke-width="1" stroke-linecap="butt" stroke-linejoin="miter" stroke-miterlimit="10" transform="translate(-1319.625 -303.25)"/><path fill="rgb(255,255,255)" stroke="#663800" d="M 0,10 C 0,4.47715250169206 4.47715250169206,0 10,0 L 153,0 C 158.52284749830795,0 163,4.47715250169206 163,10 L 163,50 C 163,55.52284749830794 158.52284749830795,60 153,60 L 10,60 C 4.47715250169206,60 0,55.52284749830794 0,50 Z" fill-opacity="1" stroke-width="1" stroke-linecap="butt" stroke-linejoin="miter" stroke-miterlimit="10" transform="translate(-996.75 -303.25)"/><path fill="rgb(255,255,255)" stroke="#663800" d="M 0,10 C 0,4.47715250169206 4.47715250169206,0 10,0 L 153,0 C 158.52284749830795,0 163,4.47715250169206 163,10 L 163,50 C 163,55.52284749830794 158.52284749830795,60 153,60 L 10,60 C 4.47715250169206,60 0,55.52284749830794 0,50 Z" fill-opacity="1" stroke-width="1" stroke-linecap="butt" stroke-linejoin="miter" stroke-miterlimit="10" transform="translate(-1319.625 -201.125)"/><path fill="rgb(255,255,255)" stroke="#663800" d="M 0,10 C 0,4.47715250169206 4.47715250169206,0 10,0 L 153,0 C 158.52284749830795,0 163,4.47715250169206 163,10 L 163,50 C 163,55.52284749830794 158.52284749830795,60 153,60 L 10,60 C 4.47715250169206,60 0,55.52284749830794 0,50 Z" fill-opacity="1" stroke-width="1" stroke-linecap="butt" stroke-linejoin="miter" stroke-miterlimit="10" transform="translate(-996.75 -209.625)"/><path fill="rgb(255,255,255)" stroke="#663800" d="M 0,10 C 0,4.47715250169206 4.47715250169206,0 10,0 L 153,0 C 158.52284749830795,0 163,4.47715250169206 163,10 L 163,50 C 163,55.52284749830794 158.52284749830795,60 153,60 L 10,60 C 4.47715250169206,60 0,55.52284749830794 0,50 Z" fill-opacity="1" stroke-width="1" stroke-linecap="butt" stroke-linejoin="miter" stroke-miterlimit="10" transform="translate(-1319.625 -92)"/><path fill="rgb(255,255,255)" stroke="#663800" d="M 0,10 C 0,4.47715250169206 4.47715250169206,0 10,0 L 153,0 C 158.52284749830795,0 163,4.47715250169206 163,10 L 163,50 C 163,55.52284749830794 158.52284749830795,60 153,60 L 10,60 C 4.47715250169206,60 0,55.52284749830794 0,50 Z" fill-opacity="1" stroke-width="1" stroke-linecap="butt" stroke-linejoin="miter" stroke-miterlimit="10" transform="translate(-1319.625 8.625)"/><path fill="rgb(255,255,255)" stroke="#663800" d="M 0,10 C 0,4.47715250169206 4.47715250169206,0 10,0 L 153,0 C 158.52284749830795,0 163,4.47715250169206 163,10 L 163,50 C 163,55.52284749830794 158.52284749830795,60 153,60 L 10,60 C 4.47715250169206,60 0,55.52284749830794 0,50 Z" fill-opacity="1" stroke-width="1" stroke-linecap="butt" stroke-linejoin="miter" stroke-miterlimit="10" transform="translate(-996.75 -100.5)"/><path fill="rgb(255,255,255)" stroke="#663800" d="M 0,10 C 0,4.47715250169206 4.47715250169206,0 10,0 L 153,0 C 158.52284749830795,0 163,4.47715250169206 163,10 L 163,50 C 163,55.52284749830794 158.52284749830795,60 153,60 L 10,60 C 4.47715250169206,60 0,55.52284749830794 0,50 Z" fill-opacity="1" stroke-width="1" stroke-linecap="butt" stroke-linejoin="miter" stroke-miterlimit="10" transform="translate(-1100.75 8.625)"/><path fill="rgb(255,255,255)" stroke="#663800" d="M 0,10 C 0,4.47715250169206 4.47715250169206,0 10,0 L 153,0 C 158.52284749830795,0 163,4.47715250169206 163,10 L 163,50 C 163,55.52284749830794 158.52284749830795,60 153,60 L 10,60 C 4.47715250169206,60 0,55.52284749830794 0,50 Z" fill-opacity="1" stroke-width="1" stroke-linecap="butt" stroke-linejoin="miter" stroke-miterlimit="10" transform="translate(-892.75 8.625)"/><path fill="rgb(255,255,255)" stroke="#663800" d="M 0,10 C 0,4.47715250169206 4.47715250169206,0 10,0 L 153,0 C 158.52284749830795,0 163,4.47715250169206 163,10 L 163,50 C 163,55.52284749830794 158.52284749830795,60 153,60 L 10,60 C 4.47715250169206,60 0,55.52284749830794 0,50 Z" fill-opacity="1" stroke-width="1" stroke-linecap="butt" stroke-linejoin="miter" stroke-miterlimit="10" transform="translate(-318.6917057287437 -1048.875)"/><path fill="rgb(255,255,255)" stroke="#663800" d="M 0,10 C 0,4.47715250169206 4.47715250169206,0 10,0 L 153,0 C 158.52284749830795,0 163,4.47715250169206 163,10 L 163,50 C 163,55.52284749830794 158.52284749830795,60 153,60 L 10,60 C 4.47715250169206,60 0,55.52284749830794 0,50 Z" fill-opacity="1" stroke-width="1" stroke-linecap="butt" stroke-linejoin="miter" stroke-miterlimit="10" transform="translate(-593.25 -938.875)"/><path fill="rgb(255,255,255)" stroke="#663800" d="M 0,10 C 0,4.47715250169206 4.47715250169206,0 10,0 L 153,0 C 158.52284749830795,0 163,4.47715250169206 163,10 L 163,50 C 163,55.52284749830794 158.52284749830795,60 153,60 L 10,60 C 4.47715250169206,60 0,55.52284749830794 0,50 Z" fill-opacity="1" stroke-width="1" stroke-linecap="butt" stroke-linejoin="miter" stroke-miterlimit="10" transform="translate(-44.13341145748734 -938.875)"/><path fill="rgb(255,255,255)" stroke="#663800" d="M 0,10 C 0,4.47715250169206 4.47715250169206,0 10,0 L 153,0 C 158.52284749830795,0 163,4.47715250169206 163,10 L 163,50 C 163,55.52284749830794 158.52284749830795,60 153,60 L 10,60 C 4.47715250169206,60 0,55.52284749830794 0,50 Z" fill-opacity="1" stroke-width="1" stroke-linecap="butt" stroke-linejoin="miter" stroke-miterlimit="10" transform="translate(-593.25 -828.875)"/><path fill="rgb(255,255,255)" stroke="#663800" d="M 0,10 C 0,4.47715250169206 4.47715250169206,0 10,0 L 153,0 C 158.52284749830795,0 163,4.47715250169206 163,10 L 163,50 C 163,55.52284749830794 158.52284749830795,60 153,60 L 10,60 C 4.47715250169206,60 0,55.52284749830794 0,50 Z" fill-opacity="1" stroke-width="1" stroke-linecap="butt" stroke-linejoin="miter" stroke-miterlimit="10" transform="translate(-44.13341145748734 -828.875)"/><path fill="rgb(255,255,255)" stroke="#663800" d="M 0,10 C 0,4.47715250169206 4.47715250169206,0 10,0 L 153,0 C 158.52284749830795,0 163,4.47715250169206 163,10 L 163,50 C 163,55.52284749830794 158.52284749830795,60 153,60 L 10,60 C 4.47715250169206,60 0,55.52284749830794 0,50 Z" fill-opacity="1" stroke-width="1" stroke-linecap="butt" stroke-linejoin="miter" stroke-miterlimit="10" transform="translate(-593.25 -718.875)"/><path fill="rgb(255,255,255)" stroke="#663800" d="M 0,10 C 0,4.47715250169206 4.47715250169206,0 10,0 L 153,0 C 158.52284749830795,0 163,4.47715250169206 163,10 L 163,50 C 163,55.52284749830794 158.52284749830795,60 153,60 L 10,60 C 4.47715250169206,60 0,55.52284749830794 0,50 Z" fill-opacity="1" stroke-width="1" stroke-linecap="butt" stroke-linejoin="miter" stroke-miterlimit="10" transform="translate(-318.6917057287437 -718.875)"/><path fill="rgb(255,255,255)" stroke="#663800" d="M 0,10 C 0,4.47715250169206 4.47715250169206,0 10,0 L 153,0 C 158.52284749830795,0 163,4.47715250169206 163,10 L 163,50 C 163,55.52284749830794 158.52284749830795,60 153,60 L 10,60 C 4.47715250169206,60 0,55.52284749830794 0,50 Z" fill-opacity="1" stroke-width="1" stroke-linecap="butt" stroke-linejoin="miter" stroke-miterlimit="10" transform="translate(-44.13341145748734 -718.875)"/><path fill="rgb(255,255,255)" stroke="#663800" d="M 0,10 C 0,4.47715250169206 4.47715250169206,0 10,0 L 153,0 C 158.52284749830795,0 163,4.47715250169206 163,10 L 163,50 C 163,55.52284749830794 158.52284749830795,60 153,60 L 10,60 C 4.47715250169206,60 0,55.52284749830794 0,50 Z" fill-opacity="1" stroke-width="1" stroke-linecap="butt" stroke-linejoin="miter" stroke-miterlimit="10" transform="translate(-885.625 -498.875)"/><path fill="rgb(255,255,255)" stroke="#663800" d="M 0,10 C 0,4.47715250169206 4.47715250169206,0 10,0 L 153,0 C 158.52284749830795,0 163,4.47715250169206 163,10 L 163,50 C 163,55.52284749830794 158.52284749830795,60 153,60 L 10,60 C 4.47715250169206,60 0,55.52284749830794 0,50 Z" fill-opacity="1" stroke-width="1" stroke-linecap="butt" stroke-linejoin="miter" stroke-miterlimit="10" transform="translate(-593.25 -608.875)"/><path fill="rgb(255,255,255)" stroke="#663800" d="M 0,10 C 0,4.47715250169206 4.47715250169206,0 10,0 L 153,0 C 158.52284749830795,0 163,4.47715250169206 163,10 L 163,50 C 163,55.52284749830794 158.52284749830795,60 153,60 L 10,60 C 4.47715250169206,60 0,55.52284749830794 0,50 Z" fill-opacity="1" stroke-width="1" stroke-linecap="butt" stroke-linejoin="miter" stroke-miterlimit="10" transform="translate(-593.25 -498.875)"/><path fill="rgb(255,255,255)" stroke="#663800" d="M 0,10 C 0,4.47715250169206 4.47715250169206,0 10,0 L 153,0 C 158.52284749830795,0 163,4.47715250169206 163,10 L 163,50 C 163,55.52284749830794 158.52284749830795,60 153,60 L 10,60 C 4.47715250169206,60 0,55.52284749830794 0,50 Z" fill-opacity="1" stroke-width="1" stroke-linecap="butt" stroke-linejoin="miter" stroke-miterlimit="10" transform="translate(-593.25 -399.875)"/><path fill="rgb(255,255,255)" stroke="#663800" d="M 0,10 C 0,4.47715250169206 4.47715250169206,0 10,0 L 153,0 C 158.52284749830795,0 163,4.47715250169206 163,10 L 163,50 C 163,55.52284749830794 158.52284749830795,60 153,60 L 10,60 C 4.47715250169206,60 0,55.52284749830794 0,50 Z" fill-opacity="1" stroke-width="1" stroke-linecap="butt" stroke-linejoin="miter" stroke-miterlimit="10" transform="translate(-44.13341145748734 -608.875)"/><path fill="rgb(255,255,255)" stroke="#663800" d="M 0,10 C 0,4.47715250169206 4.47715250169206,0 10,0 L 153,0 C 158.52284749830795,0 163,4.47715250169206 163,10 L 163,50 C 163,55.52284749830794 158.52284749830795,60 153,60 L 10,60 C 4.47715250169206,60 0,55.52284749830794 0,50 Z" fill-opacity="1" stroke-width="1" stroke-linecap="butt" stroke-linejoin="miter" stroke-miterlimit="10" transform="translate(-44.13341145748734 -488.125)"/><path fill="rgb(255,255,255)" stroke="#663800" d="M 0,10 C 0,4.47715250169206 4.47715250169206,0 10,0 L 153,0 C 158.52284749830795,0 163,4.47715250169206 163,10 L 163,50 C 163,55.52284749830794 158.52284749830795,60 153,60 L 10,60 C 4.47715250169206,60 0,55.52284749830794 0,50 Z" fill-opacity="1" stroke-width="1" stroke-linecap="butt" stroke-linejoin="miter" stroke-miterlimit="10" transform="translate(-44.13341145748734 -379.5625)"/><path fill="rgb(255,255,255)" stroke="#663800" d="M 0,10 C 0,4.47715250169206 4.47715250169206,0 10,0 L 153,0 C 158.52284749830795,0 163,4.47715250169206 163,10 L 163,50 C 163,55.52284749830794 158.52284749830795,60 153,60 L 10,60 C 4.47715250169206,60 0,55.52284749830794 0,50 Z" fill-opacity="1" stroke-width="1" stroke-linecap="butt" stroke-linejoin="miter" stroke-miterlimit="10" transform="translate(-204.00841145748734 -303.25)"/><path fill="rgb(255,255,255)" stroke="#663800" d="M 0,10 C 0,4.47715250169206 4.47715250169206,0 10,0 L 153,0 C 158.52284749830795,0 163,4.47715250169206 163,10 L 163,50 C 163,55.52284749830794 158.52284749830795,60 153,60 L 10,60 C 4.47715250169206,60 0,55.52284749830794 0,50 Z" fill-opacity="1" stroke-width="1" stroke-linecap="butt" stroke-linejoin="miter" stroke-miterlimit="10" transform="translate(118.86658854251266 -303.25)"/><path fill="rgb(255,255,255)" stroke="#663800" d="M 0,10 C 0,4.47715250169206 4.47715250169206,0 10,0 L 153,0 C 158.52284749830795,0 163,4.47715250169206 163,10 L 163,50 C 163,55.52284749830794 158.52284749830795,60 153,60 L 10,60 C 4.47715250169206,60 0,55.52284749830794 0,50 Z" fill-opacity="1" stroke-width="1" stroke-linecap="butt" stroke-linejoin="miter" stroke-miterlimit="10" transform="translate(-204.00841145748734 -209.625)"/><path fill="rgb(255,255,255)" stroke="#663800" d="M 0,10 C 0,4.47715250169206 4.47715250169206,0 10,0 L 153,0 C 158.52284749830795,0 163,4.47715250169206 163,10 L 163,50 C 163,55.52284749830794 158.52284749830795,60 153,60 L 10,60 C 4.47715250169206,60 0,55.52284749830794 0,50 Z" fill-opacity="1" stroke-width="1" stroke-linecap="butt" stroke-linejoin="miter" stroke-miterlimit="10" transform="translate(118.86658854251266 -209.625)"/><g transform="translate(-672.75 -1306.75)"><text font-family="Verdana" font-size="14px" font-style="normal" font-weight="normal" text-decoration="none" text-anchor="middle" fill="rgb(6,84,255)" fill-opacity="1" xml:space="preserve" transform="translate(79.5 12.1)"><tspan class="yfiles-label-p" dy="12px" x="0"><tspan class="yfiles-label-strong" style="font-weight: bold;">PP: Inlet arteriole</tspan></tspan><tspan class="yfiles-label-p" dy="16.8px" x="0">l=300, r=6</tspan></text></g><g transform="translate(-672.75 -1200.75)"><text font-family="Verdana" font-size="14px" font-style="normal" font-weight="normal" text-decoration="none" text-anchor="middle" fill="rgb(6,84,255)" fill-opacity="1" xml:space="preserve" transform="translate(79.5 20.5)"><tspan class="yfiles-label-p" dy="12px" x="0"><tspan class="yfiles-label-strong" style="font-weight: bold; color: rgb(153, 51, 255); fill: rgb(153, 51, 255);">VV: junc﻿</tspan></tspan></text></g><g transform="translate(-1029.75 -1140.625)"><text font-family="Verdana" font-size="14px" font-style="normal" font-weight="normal" text-decoration="none" text-anchor="middle" fill="rgb(6,84,255)" fill-opacity="1" xml:space="preserve" transform="translate(79.5 12.1)"><tspan class="yfiles-label-p" dy="12px" x="0"><tspan class="yfiles-label-strong" style="font-weight: bold;">PP: V01</tspan></tspan><tspan class="yfiles-label-p" dy="16.8px" x="0">l=123, r=3.5</tspan></text></g><g transform="translate(-316.6917057287437 -1140.6250000000002)"><text font-family="Verdana" font-size="14px" font-style="normal" font-weight="normal" text-decoration="none" text-anchor="middle" fill="rgb(6,84,255)" fill-opacity="1" xml:space="preserve" transform="translate(79.5 12.1)"><tspan class="yfiles-label-p" dy="12px" x="0"><tspan class="yfiles-label-strong" style="font-weight: bold;">PP: V11</tspan></tspan><tspan class="yfiles-label-p" dy="16.8px" x="0">l=128, r=3.5</tspan></text></g><g transform="translate(-1029.75 -1046.875)"><text font-family="Verdana" font-size="14px" font-style="normal" font-weight="normal" text-decoration="none" text-anchor="middle" fill="rgb(6,84,255)" fill-opacity="1" xml:space="preserve" transform="translate(79.5 12.1)"><tspan class="yfiles-label-p" dy="12px" x="0"><tspan class="yfiles-label-strong" style="font-weight: bold; color: rgb(230, 0, 0); fill: rgb(230, 0, 0);">VP: PV01</tspan></tspan><tspan class="yfiles-label-p" dy="16.8px" x="0"><tspan class="yfiles-label-span" style="color: rgb(230, 0, 0); fill: rgb(230, 0, 0);">l=15, r=3.5</tspan></tspan></text></g><g transform="translate(-1029.75 -936.875)"><text font-family="Verdana" font-size="14px" font-style="normal" font-weight="normal" text-decoration="none" text-anchor="middle" fill="rgb(6,84,255)" fill-opacity="1" xml:space="preserve" transform="translate(79.5 12.1)"><tspan class="yfiles-label-p" dy="12px" x="0"><tspan class="yfiles-label-strong" style="font-weight: bold;">PP: V02</tspan></tspan><tspan class="yfiles-label-p" dy="16.8px" x="0">l=78, r=3.5</tspan></text></g><g transform="translate(-1029.75 -826.875)"><text font-family="Verdana" font-size="14px" font-style="normal" font-weight="normal" text-decoration="none" text-anchor="middle" fill="rgb(6,84,255)" fill-opacity="1" xml:space="preserve" transform="translate(79.5 20.5)"><tspan class="yfiles-label-p" dy="12px" x="0"><tspan class="yfiles-label-strong" style="font-weight: bold; color: rgb(153, 51, 255); fill: rgb(153, 51, 255);">VV:junc﻿﻿2</tspan></tspan></text></g><g transform="translate(-1176 -716.875)"><text font-family="Verdana" font-size="14px" font-style="normal" font-weight="normal" text-decoration="none" text-anchor="middle" fill="rgb(6,84,255)" fill-opacity="1" xml:space="preserve" transform="translate(79.5 12.1)"><tspan class="yfiles-label-p" dy="12px" x="0"><tspan class="yfiles-label-strong" style="font-weight: bold;">PP: V03</tspan></tspan><tspan class="yfiles-label-p" dy="16.8px" x="0">l=200, r=3.25</tspan></text></g><g transform="translate(-1176 -606.875)"><text font-family="Verdana" font-size="14px" font-style="normal" font-weight="normal" text-decoration="none" text-anchor="middle" fill="rgb(6,84,255)" fill-opacity="1" xml:space="preserve" transform="translate(79.5 12.1)"><tspan class="yfiles-label-p" dy="12px" x="0"><tspan class="yfiles-label-strong" style="font-weight: bold; color: rgb(230, 0, 0); fill: rgb(230, 0, 0);">VP: PV03</tspan></tspan><tspan class="yfiles-label-p" dy="16.8px" x="0"><tspan class="yfiles-label-span" style="color: rgb(230, 0, 0); fill: rgb(230, 0, 0);">l=15, r=3.5</tspan></tspan></text></g><g transform="translate(-1176 -496.875)"><text font-family="Verdana" font-size="14px" font-style="normal" font-weight="normal" text-decoration="none" text-anchor="middle" fill="rgb(6,84,255)" fill-opacity="1" xml:space="preserve" transform="translate(79.5 12.1)"><tspan class="yfiles-label-p" dy="12px" x="0"><tspan class="yfiles-label-strong" style="font-weight: bold;">VP: V04</tspan></tspan><tspan class="yfiles-label-p" dy="16.8px" x="0">l=83, r=3.25</tspan></text></g><g transform="translate(-1176 -386.875)"><text font-family="Verdana" font-size="14px" font-style="normal" font-weight="normal" text-decoration="none" text-anchor="middle" fill="rgb(6,84,255)" fill-opacity="1" xml:space="preserve" transform="translate(79.5 20.5)"><tspan class="yfiles-label-p" dy="12px" x="0"><tspan class="yfiles-label-strong" style="font-weight: bold; color: rgb(153, 51, 255); fill: rgb(153, 51, 255);">VV:junc﻿﻿3</tspan></tspan></text></g><g transform="translate(-1317.625 -301.25)"><text font-family="Verdana" font-size="14px" font-style="normal" font-weight="normal" text-decoration="none" text-anchor="middle" fill="rgb(6,84,255)" fill-opacity="1" xml:space="preserve" transform="translate(79.5 12.1)"><tspan class="yfiles-label-p" dy="12px" x="0"><tspan class="yfiles-label-strong" style="font-weight: bold; color: rgb(230, 0, 0); fill: rgb(230, 0, 0);">PP: PV05</tspan></tspan><tspan class="yfiles-label-p" dy="16.8px" x="0"><tspan class="yfiles-label-span" style="color: rgb(230, 0, 0); fill: rgb(230, 0, 0);">l=15, r=3</tspan></tspan></text></g><g transform="translate(-994.75 -301.25)"><text font-family="Verdana" font-size="14px" font-style="normal" font-weight="normal" text-decoration="none" text-anchor="middle" fill="rgb(6,84,255)" fill-opacity="1" xml:space="preserve" transform="translate(79.5 12.1)"><tspan class="yfiles-label-p" dy="12px" x="0"><tspan class="yfiles-label-strong" style="font-weight: bold; color: rgb(230, 0, 0); fill: rgb(230, 0, 0);">PP: PV06</tspan></tspan><tspan class="yfiles-label-p" dy="16.8px" x="0"><tspan class="yfiles-label-span" style="color: rgb(230, 0, 0); fill: rgb(230, 0, 0);">l=15, r=3</tspan></tspan></text></g><g transform="translate(-1317.625 -199.125)"><text font-family="Verdana" font-size="14px" font-style="normal" font-weight="normal" text-decoration="none" text-anchor="middle" fill="rgb(6,84,255)" fill-opacity="1" xml:space="preserve" transform="translate(79.5 12.1)"><tspan class="yfiles-label-p" dy="12px" x="0"><tspan class="yfiles-label-strong" style="font-weight: bold;">VP: V05</tspan></tspan><tspan class="yfiles-label-p" dy="16.8px" x="0">l=35, r=2.75</tspan></text></g><g transform="translate(-994.75 -207.625)"><text font-family="Verdana" font-size="14px" font-style="normal" font-weight="normal" text-decoration="none" text-anchor="middle" fill="rgb(6,84,255)" fill-opacity="1" xml:space="preserve" transform="translate(79.5 12.1)"><tspan class="yfiles-label-p" dy="12px" x="0"><tspan class="yfiles-label-strong" style="font-weight: bold;">VP: V06</tspan></tspan><tspan class="yfiles-label-p" dy="16.8px" x="0">l=18.3, r=2.75</tspan></text></g><g transform="translate(-1317.625 -90)"><text font-family="Verdana" font-size="14px" font-style="normal" font-weight="normal" text-decoration="none" text-anchor="middle" fill="rgb(6,84,255)" fill-opacity="1" xml:space="preserve" transform="translate(79.5 12.1)"><tspan class="yfiles-label-p" dy="12px" x="0"><tspan class="yfiles-label-strong" style="font-weight: bold; color: rgb(230, 0, 0); fill: rgb(230, 0, 0);">VP: PTC1</tspan></tspan><tspan class="yfiles-label-p" dy="16.8px" x="0"><tspan class="yfiles-label-span" style="color: rgb(230, 0, 0); fill: rgb(230, 0, 0);">l=15, r=3</tspan></tspan></text></g><g transform="translate(-1317.625 10.625)"><text font-family="Verdana" font-size="14px" font-style="normal" font-weight="normal" text-decoration="none" text-anchor="middle" fill="rgb(6,84,255)" fill-opacity="1" xml:space="preserve" transform="translate(79.5 12.1)"><tspan class="yfiles-label-p" dy="12px" x="0"><tspan class="yfiles-label-strong" style="font-weight: bold;">VP: TC1</tspan></tspan><tspan class="yfiles-label-p" dy="16.8px" x="0">l=50.9, r=2.5</tspan></text></g><g transform="translate(-994.75 -98.5)"><text font-family="Verdana" font-size="14px" font-style="normal" font-weight="normal" text-decoration="none" text-anchor="middle" fill="rgb(6,84,255)" fill-opacity="1" xml:space="preserve" transform="translate(79.5 20.5)"><tspan class="yfiles-label-p" dy="12px" x="0"><tspan class="yfiles-label-strong" style="font-weight: bold; color: rgb(153, 51, 255); fill: rgb(153, 51, 255);">VV:junc﻿﻿4</tspan></tspan></text></g><g transform="translate(-1098.75 10.625)"><text font-family="Verdana" font-size="14px" font-style="normal" font-weight="normal" text-decoration="none" text-anchor="middle" fill="rgb(6,84,255)" fill-opacity="1" xml:space="preserve" transform="translate(79.5 12.1)"><tspan class="yfiles-label-p" dy="12px" x="0"><tspan class="yfiles-label-strong" style="font-weight: bold;">PP: TC2</tspan></tspan><tspan class="yfiles-label-p" dy="16.8px" x="0">l=53.8, r=2.5</tspan></text></g><g transform="translate(-890.75 10.625)"><text font-family="Verdana" font-size="14px" font-style="normal" font-weight="normal" text-decoration="none" text-anchor="middle" fill="rgb(6,84,255)" fill-opacity="1" xml:space="preserve" transform="translate(79.5 12.1)"><tspan class="yfiles-label-p" dy="12px" x="0"><tspan class="yfiles-label-strong" style="font-weight: bold;">PP: TC3</tspan></tspan><tspan class="yfiles-label-p" dy="16.8px" x="0">l=236.8, r=2.5</tspan></text></g><g transform="translate(-316.6917057287437 -1046.875)"><text font-family="Verdana" font-size="14px" font-style="normal" font-weight="normal" text-decoration="none" text-anchor="middle" fill="rgb(6,84,255)" fill-opacity="1" xml:space="preserve" transform="translate(79.5 20.5)"><tspan class="yfiles-label-p" dy="12px" x="0"><tspan class="yfiles-label-strong" style="font-weight: bold; color: rgb(153, 51, 255); fill: rgb(153, 51, 255);">VV: junc﻿﻿5</tspan></tspan></text></g><g transform="translate(-591.25 -936.875)"><text font-family="Verdana" font-size="14px" font-style="normal" font-weight="normal" text-decoration="none" text-anchor="middle" fill="rgb(6,84,255)" fill-opacity="1" xml:space="preserve" transform="translate(79.5 12.1)"><tspan class="yfiles-label-p" dy="12px" x="0"><tspan class="yfiles-label-strong" style="font-weight: bold; color: rgb(230, 0, 0); fill: rgb(230, 0, 0);">PP: PV12</tspan></tspan><tspan class="yfiles-label-p" dy="16.8px" x="0"><tspan class="yfiles-label-span" style="color: rgb(230, 0, 0); fill: rgb(230, 0, 0);">l=15, r=3.5</tspan></tspan></text></g><g transform="translate(-42.13341145748734 -936.875)"><text font-family="Verdana" font-size="14px" font-style="normal" font-weight="normal" text-decoration="none" text-anchor="middle" fill="rgb(6,84,255)" fill-opacity="1" xml:space="preserve" transform="translate(79.5 12.1)"><tspan class="yfiles-label-p" dy="12px" x="0"><tspan class="yfiles-label-strong" style="font-weight: bold; color: rgb(230, 0, 0); fill: rgb(230, 0, 0);">PP: PV14</tspan></tspan><tspan class="yfiles-label-p" dy="16.8px" x="0"><tspan class="yfiles-label-span" style="color: rgb(230, 0, 0); fill: rgb(230, 0, 0);">l=15, r=3.5</tspan></tspan></text></g><g transform="translate(-591.25 -826.875)"><text font-family="Verdana" font-size="14px" font-style="normal" font-weight="normal" text-decoration="none" text-anchor="middle" fill="rgb(6,84,255)" fill-opacity="1" xml:space="preserve" transform="translate(79.5 12.1)"><tspan class="yfiles-label-p" dy="12px" x="0"><tspan class="yfiles-label-strong" style="font-weight: bold;">VP: V12</tspan></tspan><tspan class="yfiles-label-p" dy="16.8px" x="0">l=58.6, r=3.25</tspan></text></g><g transform="translate(-42.13341145748734 -826.875)"><text font-family="Verdana" font-size="14px" font-style="normal" font-weight="normal" text-decoration="none" text-anchor="middle" fill="rgb(6,84,255)" fill-opacity="1" xml:space="preserve" transform="translate(79.5 12.1)"><tspan class="yfiles-label-p" dy="12px" x="0"><tspan class="yfiles-label-strong" style="font-weight: bold;">VP: V14</tspan></tspan><tspan class="yfiles-label-p" dy="16.8px" x="0">l=74.3, r=3.25</tspan></text></g><g transform="translate(-591.25 -716.875)"><text font-family="Verdana" font-size="14px" font-style="normal" font-weight="normal" text-decoration="none" text-anchor="middle" fill="rgb(6,84,255)" fill-opacity="1" xml:space="preserve" transform="translate(79.5 20.5)"><tspan class="yfiles-label-p" dy="12px" x="0"><tspan class="yfiles-label-strong" style="font-weight: bold; color: rgb(153, 51, 255); fill: rgb(153, 51, 255);">VV:junc</tspan><tspan class="yfiles-label-sub" style="baseline-shift: sub; font-size: 0.75em; color: rgb(153, 51, 255); fill: rgb(153, 51, 255);"><tspan class="yfiles-label-strong" style="font-weight: bold;">﻿﻿</tspan></tspan><tspan class="yfiles-label-strong" style="font-weight: bold; color: rgb(153, 51, 255); fill: rgb(153, 51, 255);">6</tspan></tspan></text></g><g transform="translate(-316.6917057287437 -716.875)"><text font-family="Verdana" font-size="14px" font-style="normal" font-weight="normal" text-decoration="none" text-anchor="middle" fill="rgb(6,84,255)" fill-opacity="1" xml:space="preserve" transform="translate(79.5 12.1)"><tspan class="yfiles-label-p" dy="12px" x="0"><tspan class="yfiles-label-strong" style="font-weight: bold;">VP: V17</tspan></tspan><tspan class="yfiles-label-p" dy="16.8px" x="0">l=26.7, r=3.25</tspan></text></g><g transform="translate(-42.13341145748734 -716.875)"><text font-family="Verdana" font-size="14px" font-style="normal" font-weight="normal" text-decoration="none" text-anchor="middle" fill="rgb(6,84,255)" fill-opacity="1" xml:space="preserve" transform="translate(79.5 20.5)"><tspan class="yfiles-label-p" dy="12px" x="0"><tspan class="yfiles-label-strong" style="font-weight: bold; color: rgb(153, 51, 255); fill: rgb(153, 51, 255);">VV:junc﻿﻿8</tspan></tspan></text></g><g transform="translate(-883.625 -496.875)"><text font-family="Verdana" font-size="14px" font-style="normal" font-weight="normal" text-decoration="none" text-anchor="middle" fill="rgb(6,84,255)" fill-opacity="1" xml:space="preserve" transform="translate(79.5 12.1)"><tspan class="yfiles-label-p" dy="12px" x="0"><tspan class="yfiles-label-strong" style="font-weight: bold;">PP: V07</tspan></tspan><tspan class="yfiles-label-p" dy="16.8px" x="0">l=35.3, r=3.25</tspan></text></g><g transform="translate(-591.25 -606.875)"><text font-family="Verdana" font-size="14px" font-style="normal" font-weight="normal" text-decoration="none" text-anchor="middle" fill="rgb(6,84,255)" fill-opacity="1" xml:space="preserve" transform="translate(79.5 12.1)"><tspan class="yfiles-label-p" dy="12px" x="0"><tspan class="yfiles-label-strong" style="font-weight: bold;">VP: V13</tspan></tspan><tspan class="yfiles-label-p" dy="16.8px" x="0">l=30, r=3</tspan></text></g><g transform="translate(-591.25 -496.875)"><text font-family="Verdana" font-size="14px" font-style="normal" font-weight="normal" text-decoration="none" text-anchor="middle" fill="rgb(6,84,255)" fill-opacity="1" xml:space="preserve" transform="translate(79.5 20.5)"><tspan class="yfiles-label-p" dy="12px" x="0"><tspan class="yfiles-label-strong" style="font-weight: bold; color: rgb(153, 51, 255); fill: rgb(153, 51, 255);">VV:junc﻿﻿7</tspan></tspan></text></g><g transform="translate(-591.25 -397.875)"><text font-family="Verdana" font-size="14px" font-style="normal" font-weight="normal" text-decoration="none" text-anchor="middle" fill="rgb(6,84,255)" fill-opacity="1" xml:space="preserve" transform="translate(79.5 12.1)"><tspan class="yfiles-label-p" dy="12px" x="0"><tspan class="yfiles-label-strong" style="font-weight: bold;">PP: TC4</tspan></tspan><tspan class="yfiles-label-p" dy="16.8px" x="0">l=366, r=2.75</tspan></text></g><g transform="translate(-42.13341145748734 -606.875)"><text font-family="Verdana" font-size="14px" font-style="normal" font-weight="normal" text-decoration="none" text-anchor="middle" fill="rgb(6,84,255)" fill-opacity="1" xml:space="preserve" transform="translate(79.5 12.1)"><tspan class="yfiles-label-p" dy="12px" x="0"><tspan class="yfiles-label-strong" style="font-weight: bold; color: rgb(230, 0, 0); fill: rgb(230, 0, 0);">PP: PV16</tspan></tspan><tspan class="yfiles-label-p" dy="16.8px" x="0"><tspan class="yfiles-label-span" style="color: rgb(230, 0, 0); fill: rgb(230, 0, 0);">l=15, r=3.25</tspan></tspan></text></g><g transform="translate(-42.13341145748734 -486.125)"><text font-family="Verdana" font-size="14px" font-style="normal" font-weight="normal" text-decoration="none" text-anchor="middle" fill="rgb(6,84,255)" fill-opacity="1" xml:space="preserve" transform="translate(79.5 12.1)"><tspan class="yfiles-label-p" dy="12px" x="0"><tspan class="yfiles-label-strong" style="font-weight: bold;">VP: V16</tspan></tspan><tspan class="yfiles-label-p" dy="16.8px" x="0">l=204, r=3.25</tspan></text></g><g transform="translate(-42.13341145748734 -377.5625)"><text font-family="Verdana" font-size="14px" font-style="normal" font-weight="normal" text-decoration="none" text-anchor="middle" fill="rgb(6,84,255)" fill-opacity="1" xml:space="preserve" transform="translate(79.5 20.5)"><tspan class="yfiles-label-p" dy="12px" x="0"><tspan class="yfiles-label-strong" style="font-weight: bold; color: rgb(153, 51, 255); fill: rgb(153, 51, 255);">VV:junc﻿﻿9</tspan></tspan></text></g><g transform="translate(-202.00841145748734 -301.25)"><text font-family="Verdana" font-size="14px" font-style="normal" font-weight="normal" text-decoration="none" text-anchor="middle" fill="rgb(6,84,255)" fill-opacity="1" xml:space="preserve" transform="translate(79.5 12.1)"><tspan class="yfiles-label-p" dy="12px" x="0"><tspan class="yfiles-label-strong" style="font-weight: bold; color: rgb(230, 0, 0); fill: rgb(230, 0, 0);">PP: PTC5</tspan></tspan><tspan class="yfiles-label-p" dy="16.8px" x="0"><tspan class="yfiles-label-span" style="color: rgb(230, 0, 0); fill: rgb(230, 0, 0);">l=15, r=3</tspan></tspan></text></g><g transform="translate(120.86658854251266 -301.25)"><text font-family="Verdana" font-size="14px" font-style="normal" font-weight="normal" text-decoration="none" text-anchor="middle" fill="rgb(6,84,255)" fill-opacity="1" xml:space="preserve" transform="translate(79.5 12.1)"><tspan class="yfiles-label-p" dy="12px" x="0"><tspan class="yfiles-label-strong" style="font-weight: bold; color: rgb(230, 0, 0); fill: rgb(230, 0, 0);">PP: PTC6</tspan></tspan><tspan class="yfiles-label-p" dy="16.8px" x="0"><tspan class="yfiles-label-span" style="color: rgb(230, 0, 0); fill: rgb(230, 0, 0);">l=15, r=3</tspan></tspan></text></g><g transform="translate(-202.00841145748734 -207.625)"><text font-family="Verdana" font-size="14px" font-style="normal" font-weight="normal" text-decoration="none" text-anchor="middle" fill="rgb(6,84,255)" fill-opacity="1" xml:space="preserve" transform="translate(79.5 12.1)"><tspan class="yfiles-label-p" dy="12px" x="0"><tspan class="yfiles-label-strong" style="font-weight: bold;">PP: TC5</tspan></tspan><tspan class="yfiles-label-p" dy="16.8px" x="0">l=127, r=2.75</tspan></text></g><g transform="translate(120.86658854251266 -207.625)"><text font-family="Verdana" font-size="14px" font-style="normal" font-weight="normal" text-decoration="none" text-anchor="middle" fill="rgb(6,84,255)" fill-opacity="1" xml:space="preserve" transform="translate(79.5 12.1)"><tspan class="yfiles-label-p" dy="12px" x="0"><tspan class="yfiles-label-strong" style="font-weight: bold;">PP: TC3</tspan></tspan><tspan class="yfiles-label-p" dy="16.8px" x="0">l=201, r=2.75</tspan></text></g></g></g></g><defs><path fill="#ffffff" stroke="#ffffff" d="M 0.08,-0.03 L 0,0 L 0.08,0.03 Z" stroke-width="1" stroke-linecap="butt" stroke-linejoin="miter" stroke-miterlimit="10" id="ygc225_0"/></defs></svg>